<svg xmlns="http://www.w3.org/2000/svg" xmlns:xlink="http://www.w3.org/1999/xlink" width="18" height="22" viewBox="0 0 18 22"><defs><style>.a{fill:url(#a);}</style><linearGradient id="a" x2="1" y2="1" gradientUnits="objectBoundingBox"><stop offset="0" stop-color="#a8a8a8"/><stop offset="1" stop-color="#343434"/></linearGradient></defs><path class="a" d="M28.941,2H13.059A1.034,1.034,0,0,0,12,3V23a1.034,1.034,0,0,0,1.059,1H28.941A1.034,1.034,0,0,0,30,23V3A1.034,1.034,0,0,0,28.941,2ZM27.882,22H14.118V4H27.882ZM16.368,17.75a1.034,1.034,0,0,1,1.059-1h7.147a1,1,0,1,1,0,2H17.426A1.034,1.034,0,0,1,16.368,17.75ZM16.526,13a1.034,1.034,0,0,1,1.059-1h6.962a1,1,0,1,1,0,2H17.585A1.034,1.034,0,0,1,16.526,13Zm0-4.75a1.034,1.034,0,0,1,1.059-1h6.962a1,1,0,1,1,0,2H17.585A1.034,1.034,0,0,1,16.526,8.25Z" transform="translate(-12 -2)"/></svg>