<svg xmlns="http://www.w3.org/2000/svg" width="133.125" height="60" viewBox="0 0 133.125 60"><defs><style>.a{fill:#fff;opacity:0;}.b{fill:#06b1b5;}.c,.d{fill:#fb4b63;}.c{fill-rule:evenodd;}</style></defs><g transform="translate(17 -18.811)"><rect class="a" width="133.125" height="60" transform="translate(-17 18.811)"/><g transform="translate(-8.125 25.478)"><path class="b" d="M124.244,53.094l-.013.174a.781.781,0,0,1-.027.174,1.292,1.292,0,0,1-.107.32l-.068.147c-.027.04-.053.094-.08.137a.808.808,0,0,1-.093.137l-.094.12a3.967,3.967,0,0,1-.854.734,8.961,8.961,0,0,1-1.881.894,25.337,25.337,0,0,1-3.922,1.026c-1.321.24-2.656.41-3.989.521s-2.668.147-4.016.16a48.842,48.842,0,0,1-8-.654,24.374,24.374,0,0,1-3.936-1.014,10.248,10.248,0,0,1-1.895-.907,4.025,4.025,0,0,1-.867-.734l-.093-.12a.809.809,0,0,0-.094-.137c-.027-.04-.053-.094-.08-.137l-.068-.147a1.292,1.292,0,0,1-.107-.32.779.779,0,0,1-.027-.174c0-.053-.014-.12-.014-.174s.014-.12.014-.174a.779.779,0,0,1,.027-.174,2.26,2.26,0,0,1,.107-.32l.068-.147c.027-.04.053-.094.08-.137a.811.811,0,0,1,.094-.137l.093-.12a4.366,4.366,0,0,1,.867-.72,10.038,10.038,0,0,1,1.895-.867,25.592,25.592,0,0,1,3.936-.947,48.455,48.455,0,0,1,7.979-.587c1.335,0,2.668.04,4,.147a39.876,39.876,0,0,1,3.976.467,23.657,23.657,0,0,1,3.923.947,10.038,10.038,0,0,1,1.895.867,3.883,3.883,0,0,1,.867.707l.093.107c.027.04.053.08.094.137a1.174,1.174,0,0,1,.08.137l.068.147a1.293,1.293,0,0,1,.107.32.677.677,0,0,1,.027.174Zm-.894,0a.958.958,0,0,0-.267-.6,3.426,3.426,0,0,0-.654-.56,10.071,10.071,0,0,0-1.71-.814,22.7,22.7,0,0,0-3.776-.958,38.14,38.14,0,0,0-3.909-.479q-1.964-.153-3.936-.147a46.814,46.814,0,0,0-7.845.654,22.73,22.73,0,0,0-3.776.974,8.643,8.643,0,0,0-1.694.814,2.964,2.964,0,0,0-.654.547,1.007,1.007,0,0,0-.267.587.93.93,0,0,0,.267.574,2.922,2.922,0,0,0,.654.534,8.654,8.654,0,0,0,1.71.774,23.605,23.605,0,0,0,3.776.907,46.433,46.433,0,0,0,7.819.574c1.307,0,2.615-.04,3.922-.137s2.6-.227,3.9-.427a22.54,22.54,0,0,0,3.776-.894,9.022,9.022,0,0,0,1.71-.774,3.447,3.447,0,0,0,.667-.534,1.079,1.079,0,0,0,.289-.615Z" transform="translate(-9.528 -15.415)"/><path class="c" d="M32.782,24.811h9.8V44.848H53.75a2.583,2.583,0,0,0,2.676-3.518c-1.149-3.98-6-5.541-10.67-5.541V24.828l20.465-8.7V26.685L57,30.335c4.169,2.333,7.359,5.147,8.355,8.443,1.287,4.443.549,9.915-3.225,13.467-2.933,2.762-5.558,2.487-8.388,2.676l-20.962.018v.018H32.73l.052-30.141Z" transform="translate(-3.945 -12.837)"/><path class="c" d="M15.9,26V43.669a2.383,2.383,0,0,1-2.144,2.368L8.663,26H0L5.147,45.9H5.112l.034.137H1.424l1.956,10.1H7.17v.017h6.772A11.769,11.769,0,0,0,25.624,44.39V26Z" transform="translate(0 -14.027)"/><path class="c" d="M83.288,55.967H73.476V29.549l9.812-4.134Z" transform="translate(-8.856 -13.956)"/><path class="b" d="M82.652,13.793a4.785,4.785,0,0,0-3.342-1.407h-.069a4.807,4.807,0,0,0-3.362,1.355,4.721,4.721,0,0,0-1.424,3.328,5.106,5.106,0,0,0,1.252,3.518c-.446.189-.652.274-1.166.48a1.722,1.722,0,0,0-.96,2.23,1.7,1.7,0,0,0,1.578,1.081,1.751,1.751,0,0,0,.652-.12,37.5,37.5,0,0,0,6.124-2.882c.069-.052.292-.223.429-.343a4.71,4.71,0,0,0,1.664-4.014,4.372,4.372,0,0,0-1.376-3.226Zm-3.379,5.078a1.682,1.682,0,1,1,1.7-1.664,1.682,1.682,0,0,1-1.7,1.664Z" transform="translate(-8.854 -12.386)"/><path class="d" d="M124.481,15.584a15.584,15.584,0,0,0-31.168,0,15.261,15.261,0,0,0,.734,4.71,17.069,17.069,0,0,0,1.268,3.283,23.437,23.437,0,0,0,2.3,3.575c.827,1.081,1.694,2.052,2.535,2.976s1.668,1.774,2.428,2.588,1.5,1.628,2.189,2.375q.948,1.051,1.828,2.162c.137.174.267.347.387.507l.094.12c.027.04.068.094.093.137s.068.094.094.137l.027.027.014.014.068.08a1.856,1.856,0,0,0,.28.28,1.958,1.958,0,0,0,1.5.427,1.847,1.847,0,0,0,.747-.254,1.22,1.22,0,0,0,.174-.107l.08-.068a.427.427,0,0,0,.094-.08.615.615,0,0,0,.093-.094c.027-.027.068-.08.08-.094l.027-.027a2.268,2.268,0,0,1,.146-.187l.08-.12c.053-.08.12-.147.174-.227q.639-.823,1.335-1.6,1.349-1.54,2.749-3.034s.253-.28.734-.787,1.2-1.281,2.108-2.281a37.058,37.058,0,0,0,3.109-3.87,22.118,22.118,0,0,0,1.6-2.7,18.4,18.4,0,0,0,1.026-2.495,15.259,15.259,0,0,0,.973-5.377ZM108.9,2.335A13.242,13.242,0,1,1,95.648,15.57,13.243,13.243,0,0,1,108.9,2.335Z" transform="translate(-8.926 0)"/><path class="d" d="M105.878,26.136a6.378,6.378,0,1,0-6.284-6.377,6.378,6.378,0,0,0,6.284,6.377Zm0-11.341c1.922,0,3.469,2.228,3.469,4.963s-1.561,4.963-3.469,4.963-3.469-2.228-3.469-4.963S103.972,14.8,105.878,14.8Z" transform="translate(-10.927 -4.228)"/><path class="d" d="M124.213,26.163h3.963l-5.858-6.351,5.3-5.814-3.4-.027L119.69,19a1.409,1.409,0,0,0,0,1.988Z" transform="translate(-17.147 -4.414)"/></g></g></svg>