<svg xmlns="http://www.w3.org/2000/svg" width="22" height="18" viewBox="0 0 22 18"><defs><style>.a{fill:#fff;}</style></defs><path class="a" d="M21.952,15.058l-2.559,8.39a1.364,1.364,0,0,1-1.291,1H8.226a1.412,1.412,0,0,1-1.315-.921L3.133,12.992H.957A1,1,0,0,1,.957,11H3.8a.983.983,0,0,1,.909.672l3.9,10.78H17.7l2.033-6.722H8.465a1,1,0,0,1,0-1.992H21.043a.941.941,0,0,1,.765.423A1,1,0,0,1,21.952,15.058ZM8.7,25.763a1.546,1.546,0,0,0-1.1.473,1.67,1.67,0,0,0,0,2.29,1.516,1.516,0,0,0,2.2,0,1.67,1.67,0,0,0,0-2.29A1.546,1.546,0,0,0,8.7,25.763Zm8.585,0a1.546,1.546,0,0,0-1.1.473,1.671,1.671,0,0,0,0,2.29,1.516,1.516,0,0,0,2.2,0,1.671,1.671,0,0,0,0-2.29A1.546,1.546,0,0,0,17.289,25.763Z" transform="translate(0 -11)"/></svg>