<svg xmlns="http://www.w3.org/2000/svg" xmlns:xlink="http://www.w3.org/1999/xlink" width="21.6" height="20.661" viewBox="0 0 21.6 20.661"><defs><style>.a{fill:url(#a);}</style><linearGradient id="a" x1="-0.331" y1="-0.344" x2="1" y2="1" gradientUnits="objectBoundingBox"><stop offset="0" stop-color="#42f3e7"/><stop offset="1" stop-color="#06b1b5"/></linearGradient></defs><path class="a" d="M9.391,14.561a.832.832,0,0,0-.822-.822H5.517a.832.832,0,0,0-.822.822v3.052a.832.832,0,0,0,.822.822H8.57a.832.832,0,0,0,.822-.822Zm-3.052.822H7.748v1.409H6.339Zm15-7.889-2.09-2.113V2.939A.947.947,0,0,0,18.29,2H3.31a.947.947,0,0,0-.963.939V5.381L.258,7.494A.922.922,0,0,0,0,8.151v2.395a.866.866,0,0,0,.939.845H20.661a.87.87,0,0,0,.939-.869V8.151A.922.922,0,0,0,21.342,7.494ZM17.374,3.878V5.052H4.226V3.878Zm2.348,5.635H1.878V8.527L3.8,6.7H17.8l1.925,1.831Zm.47,3.78v8.429a.942.942,0,0,1-.939.939H16.036a.9.9,0,0,1-.939-.892V16.791H12.913v4.93a.962.962,0,0,1-.963.939H2.371a.962.962,0,0,1-.963-.939V13.293a.939.939,0,1,1,1.878,0v7.49h7.748V15.758a.846.846,0,0,1,.916-.845h4.062a.807.807,0,0,1,.869.845v5.024H18.29v-7.49a.942.942,0,0,1,.939-.939A.962.962,0,0,1,20.191,13.293Z" transform="translate(0 -2)"/></svg>