<svg xmlns="http://www.w3.org/2000/svg" xmlns:xlink="http://www.w3.org/1999/xlink" width="22" height="22" viewBox="0 0 22 22"><defs><style>.a{fill:url(#a);}</style><linearGradient id="a" x2="1" y2="1" gradientUnits="objectBoundingBox"><stop offset="0" stop-color="#a8a8a8"/><stop offset="1" stop-color="#343434"/></linearGradient></defs><path class="a" d="M18.772,3.228A10.907,10.907,0,0,0,11,0h0A11.022,11.022,0,0,0,0,11,11.022,11.022,0,0,0,11,22,11.022,11.022,0,0,0,22,11,10.907,10.907,0,0,0,18.772,3.228ZM16.62,9.661l3.276-.5a8.957,8.957,0,0,1,0,3.683l-3.276-.5A6.321,6.321,0,0,0,16.62,9.661Zm2.87-1.913-3.4.526a5.58,5.58,0,0,0-1-1.363,5.42,5.42,0,0,0-1.363-1l.526-3.4a9.217,9.217,0,0,1,3.18,2.057A9.445,9.445,0,0,1,19.489,7.748ZM11,14.874A3.854,3.854,0,0,1,8.274,13.75,3.8,3.8,0,0,1,7.15,11.024,3.855,3.855,0,0,1,13.726,8.3a3.8,3.8,0,0,1,1.124,2.726A3.837,3.837,0,0,1,11,14.874ZM11,1.913a9.433,9.433,0,0,1,1.841.191l-.5,3.276a5.636,5.636,0,0,0-2.678,0L9.159,2.1A9.433,9.433,0,0,1,11,1.913ZM4.567,4.567a8.884,8.884,0,0,1,3.18-2.057l.526,3.4a5.58,5.58,0,0,0-1.363,1A7.034,7.034,0,0,0,5.883,8.274l-3.4-.526A9.9,9.9,0,0,1,4.567,4.567ZM1.913,11A9.433,9.433,0,0,1,2.1,9.159l3.276.5A6.221,6.221,0,0,0,5.213,11a5.015,5.015,0,0,0,.167,1.339l-3.276.5A9.433,9.433,0,0,1,1.913,11Zm.6,3.252,3.4-.526a5.117,5.117,0,0,0,1.028,1.363A7.034,7.034,0,0,0,8.3,16.117l-.526,3.4a9.217,9.217,0,0,1-3.18-2.057A9.482,9.482,0,0,1,2.511,14.252ZM11,20.087A9.432,9.432,0,0,1,9.159,19.9l.5-3.276A6.221,6.221,0,0,0,11,16.787h0a5.015,5.015,0,0,0,1.339-.167l.5,3.276A9.432,9.432,0,0,1,11,20.087Zm6.433-2.654a8.884,8.884,0,0,1-3.18,2.057l-.526-3.4a5.117,5.117,0,0,0,1.363-1.028,5.42,5.42,0,0,0,1-1.363l3.4.526A9.312,9.312,0,0,1,17.433,17.433Z"/></svg>