<svg xmlns="http://www.w3.org/2000/svg" width="320.739" height="100" viewBox="0 0 320.739 100"><g transform="translate(-866.417 -0.135)"><path d="M877.876.135c49.886,0,71.5,27.18,71.5,55.023v7.814c0,6.73,5.906,12.186,13.191,12.186l151.494-.484c7.285,0,13.191-5.456,13.191-12.186V54.673c0-27.843,21.48-54.538,71.364-54.538Z" transform="translate(-11.459)" fill="#343434" opacity="0.1"/><path d="M887.876.135a49.859,49.859,0,0,1,50,50V87.949a12.186,12.186,0,0,0,12.186,12.186h153.449A12.186,12.186,0,0,0,1115.7,87.949V50.135a49.859,49.859,0,0,1,50-50Z" fill="#f5f5f5"/></g></svg>